<svg width="509" height="413" viewBox="0 0 509 413" fill="none" xmlns="http://www.w3.org/2000/svg">
<path d="M508.027 49.2596C489.379 57.523 469.346 63.1063 448.285 65.63C469.77 52.766 486.252 32.3533 494.024 8.05465C473.924 19.9806 451.658 28.646 427.962 33.2913C408.979 13.102 381.955 0.461319 352.029 0.461319C294.587 0.461319 248 47.0486 248 104.535C248 112.664 248.938 120.57 250.68 128.208C164.183 123.853 87.5573 82.4246 36.2353 19.4893C27.3019 34.8993 22.1653 52.766 22.1653 71.794C22.1653 107.885 40.5456 139.754 68.4399 158.403C51.3773 157.844 35.3419 153.177 21.3166 145.382V146.722C21.3166 197.129 57.1616 239.182 104.776 248.741C96.0216 251.108 86.8426 252.359 77.3733 252.359C70.6733 252.359 64.1296 251.734 57.7869 250.528C71.0306 291.844 109.444 321.95 154.982 322.754C119.36 350.67 74.4923 367.309 25.7609 367.309C17.3636 367.309 9.07794 366.817 0.92627 365.857C46.9776 395.404 101.65 412.601 160.386 412.601C351.783 412.601 456.415 254.079 456.415 116.595C456.415 112.128 456.303 107.617 456.102 103.15C476.425 88.4546 494.069 70.1636 507.982 49.3266L508.027 49.2596Z" fill="white"/>
</svg>
